<svg xmlns="http://www.w3.org/2000/svg" viewBox="0 0 284.41 53.33"><defs><style>.cls-1{fill:#4d8826;stroke:#4d8826;}.cls-1,.cls-2{stroke-miterlimit:10;}.cls-2{fill:#fff;stroke:#fff;}</style></defs><title>Gotham Green Text Logo</title><g id="Layer_2" data-name="Layer 2"><g id="Layer_1-2" data-name="Layer 1"><path class="cls-1" d="M266.46,1.11V23.47h1.72V5l15.06,18.47h.67V1.11h-1.69v18.5l-15-18.5ZM244,2.73h13.72V1.11H242.26V23.47h15.79V21.81H244V13H257V11.44H244Zm-23.5,0h13.72V1.11H218.76V23.47h15.79V21.81h-14.1V13h13.08V11.44H220.45Zm-24.56,0H204a5.15,5.15,0,0,1,5.45,5.35c0,3.13-1.75,5.34-5.64,5.34h-7.92Zm8.2,12.22c4.88,0,7.28-3.19,7.25-6.84a6.91,6.91,0,0,0-7.34-7h-9.83V23.47h1.72V15H202l7.72,8.45H212ZM185.63,4.17A11.63,11.63,0,0,0,177.46.82c-6.79,0-11.55,4.56-11.51,11.55,0,6.09,3.92,11.39,11.51,11.39a11.58,11.58,0,0,0,8.43-3.6V11.8h-9.42v1.49h7.79v6.26a10.08,10.08,0,0,1-6.8,2.58c-6.51,0-9.86-4.53-9.86-9.79s3.32-10,9.86-10a10.37,10.37,0,0,1,7.18,2.87ZM149.1,23.47h4.21V1.17h-4.82l-7,9.59-7-9.59h-4.85v22.3h4.21V7.26L141,17h.83l7.28-9.68ZM117,15.34h-8.3l4.15-9.53Zm3.57,8.13h4.6l-10-22.36h-4.6l-10,22.36h4.56L107,19.26h11.68ZM96,23.47V1.17H91.85v9.41h-11V1.17H76.67v22.3h4.21v-9h11v9Zm-36.12,0h4.22V4.93h7.08V1.11H52.83V4.93h7.08ZM38,4.52c5.27,0,7.37,4.21,7.31,8s-2,7.62-7.31,7.62-7.24-3.92-7.33-7.59S32.76,4.52,38,4.52ZM38,.69c-7.72,0-11.48,5.9-11.48,11.78S30.17,24,38,24s11.4-5.77,11.46-11.55S45.71.69,38,.69ZM20.6,3.91A11.81,11.81,0,0,0,12.31.5C4.42.5.5,6.31.5,12.59.5,18.46,3.91,24,12.31,24a11.13,11.13,0,0,0,8.9-4V10.55H11.64v3.77h5.71v3.95a7.41,7.41,0,0,1-5,1.79c-5.56,0-7.69-3.8-7.69-7.47,0-4.59,2.9-8.23,7.69-8.23A8.6,8.6,0,0,1,18,6.59Z"/><path class="cls-2" d="M206.14,40.08c-1.46-2.18-3.31-2.52-5.42-2.52-2.44,0-5.7,1-5.64,4.11,0,2.73,2.78,3.28,5.49,3.81,2.43.47,4.89,1,4.87,3.18,0,2.63-2.9,3.14-4.72,3.14s-4.16-.89-5.07-2.69l-1,.5c1.15,2.27,3.78,3.22,6.09,3.22,2.48,0,5.84-.8,5.86-4.15s-3-3.71-5.82-4.26c-2.5-.46-4.54-.91-4.54-2.79,0-2.38,2.76-3,4.5-3s3.41.27,4.49,2ZM180,38.81h5.38A3.42,3.42,0,0,1,189,42.36c0,2.08-1.16,3.55-3.75,3.55H180Zm5.44,8.11c3.24,0,4.83-2.12,4.81-4.54a4.58,4.58,0,0,0-4.87-4.63h-6.53V52.6H180V47h4l5.13,5.61h1.51Zm-20.87-8.09h9.11V37.75H163.41V52.6H173.9V51.5h-9.36V45.65h8.68v-1h-8.68Zm-18.4-1.08V52.6h1.14V40.34l10,12.26h.44V37.75h-1.12V50l-10-12.28ZM135.07,52.6h1.15V38.81h5.36v-1H129.71v1h5.36ZM115.24,38.81h5.38a3.42,3.42,0,0,1,3.62,3.55c0,2.08-1.16,3.55-3.75,3.55h-5.25Zm5.44,8.11c3.24,0,4.83-2.12,4.81-4.54a4.58,4.58,0,0,0-4.87-4.63h-6.53V52.6h1.15V47h4l5.13,5.61h1.51Zm-22.14,1,4-9,4,9Zm11.27,4.7-6.66-14.85H101.9L95.25,52.6h1.23L98.09,49H107l1.63,3.64ZM87.05,47.47c6.44,0,6.44-9.72,0-9.72H80.54V52.6h1.15V47.47Zm0-8.66c4.93,0,4.93,7.63,0,7.63H81.69V38.81Z"/><rect class="cls-2" x="0.5" y="44.69" width="63.63" height="1.01"/><rect class="cls-2" x="220.29" y="44.69" width="63.63" height="1.01"/></g></g></svg>