<svg xmlns="http://www.w3.org/2000/svg" viewBox="0 0 263.23 263.23"><defs><style>.cls-1{fill:#fff;fill-rule:evenodd;}</style></defs><title>Gotham Green Icon White</title><g id="Layer_2" data-name="Layer 2"><g id="Layer_1-2" data-name="Layer 1"><path class="cls-1" d="M131.61,0A131.65,131.65,0,0,1,246.05,196.67a1.8,1.8,0,0,1-1.33.92,1.85,1.85,0,0,1-1.56-.45l-13-11.63a1.85,1.85,0,0,1-.4-2.27,111,111,0,1,0-27.54,33.87L183,197.82a71.47,71.47,0,0,1-114-57.3V74.35a5.31,5.31,0,0,1,5.29-5.3H140.4a71.44,71.44,0,0,1,68,93.37,1.89,1.89,0,0,1-3,.82L191,150.34a1.82,1.82,0,0,1-.6-1.7,51.31,51.31,0,0,0,.66-8.12A50.84,50.84,0,0,0,140.4,89.87H89.75v50.65A50.56,50.56,0,0,0,168,182.88c-12.26-14.41-32.6-39.3-50.22-57.4,36.54,6.51,85.61,64,113.4,89.37a1.88,1.88,0,0,1,.16,2.61A131.61,131.61,0,1,1,131.61,0"/></g></g></svg>